<svg xmlns="http://www.w3.org/2000/svg" xmlns:xlink="http://www.w3.org/1999/xlink" width="1235" height="650" viewBox="0 0 1235 650">
  <defs>
    <polygon id="pt" points="-0.1624598481164531,0 0,-0.5 0.1624598481164531,0" transform="scale(0.0616)" fill="#FFF"/>
    <g id="star">
      <use xlink:href="#pt" transform="rotate(-144)"/>
      <use xlink:href="#pt" transform="rotate(-72)"/>
      <use xlink:href="#pt"/>
      <use xlink:href="#pt" transform="rotate(72)"/>
      <use xlink:href="#pt" transform="rotate(144)"/>
    </g>
    <g id="s5">
      <use xlink:href="#star" x="-0.252"/>
      <use xlink:href="#star" x="-0.126"/>
      <use xlink:href="#star"/>
      <use xlink:href="#star" x="0.126"/>
      <use xlink:href="#star" x="0.252"/>
    </g>
    <g id="s6">
      <use xlink:href="#s5" x="-0.063"/>
      <use xlink:href="#star" x="0.315"/>
    </g>
    <g id="x4">
      <use xlink:href="#s6"/>
      <use xlink:href="#s5" y="0.054"/>
      <use xlink:href="#s6" y="0.108"/>
      <use xlink:href="#s5" y="0.162"/>
    </g>
    <g id="u">
      <use xlink:href="#x4" y="-0.216"/>
      <use xlink:href="#x4"/>
      <use xlink:href="#s6" y="0.216"/>
    </g>
    <rect id="stripe" width="1235" height="50" fill="#BB133E"/>
  </defs>

  <!-- Background & Stripes -->
  <rect width="1235" height="650" fill="#FFF"/>
  <use xlink:href="#stripe"/>
  <use xlink:href="#stripe" y="100"/>
  <use xlink:href="#stripe" y="200"/>
  <use xlink:href="#stripe" y="300"/>
  <use xlink:href="#stripe" y="400"/>
  <use xlink:href="#stripe" y="500"/>
  <use xlink:href="#stripe" y="600"/>

  <!-- Blue Canton -->
  <rect width="494" height="350" fill="#002664"/>
  <use xlink:href="#u" transform="translate(247,175) scale(650)"/>

  <!-- Canadian Maple Leaf (scaled) -->
  <path fill="red" opacity=".8" transform="translate(-136,6) scale(0.078)" d="
    M4990 4430l-45-863a95 95 0 0 1 111-98l859 151-116-320a65 65 0 0 1 20-73l941-762-212-99a65 65 0 0 1-34-79l186-572-542 115a65 65 0 0 1-73-38l-105-247-423 454a65 65 0 0 1-111-57l204-1052-327 189a65 65 0 0 1-91-27l-332-652-332 652a65 65 0 0 1-91 27l-327-189 204 1052a65 65 0 0 1-111 57l-423-454-105 247a65 65 0 0 1-73 38l-542-115 186 572a65 65 0 0 1-34 79l-212 99 941 762a65 65 0 0 1 20 73l-116 320 859-151a95 95 0 0 1 111 98l-45 863z"/>

</svg>

